<svg width="24" height="24" viewBox="0 0 24 24" fill="none" xmlns="http://www.w3.org/2000/svg">
<path d="M11.9993 15.3109C11.8751 15.3109 11.755 15.2848 11.6389 15.2326C11.5228 15.1805 11.4229 15.1026 11.3391 14.999L6.36412 10.0549C6.18949 9.87532 6.10634 9.64328 6.11467 9.35883C6.12301 9.07436 6.21449 8.84182 6.38912 8.6612C6.60109 8.45123 6.83488 8.35875 7.0905 8.38375C7.34612 8.40875 7.56957 8.50857 7.76087 8.6832L12 12.9413L16.2641 8.6832C16.4408 8.50458 16.6689 8.40793 16.9485 8.39325C17.2281 8.37858 17.4636 8.47609 17.6549 8.68578C17.8502 8.86609 17.9395 9.09571 17.9228 9.37462C17.9062 9.65352 17.8085 9.8803 17.6299 10.0549L12.6859 14.999C12.5852 15.1026 12.4767 15.1805 12.3602 15.2326C12.2438 15.2848 12.1235 15.3109 11.9993 15.3109Z" fill="black"/>
</svg>
